<svg width="24" height="24" viewBox="0 0 24 24" fill="none" xmlns="http://www.w3.org/2000/svg">
<path d="M21.5475 7.61101L14.464 1.84702C13.0797 0.72502 10.9168 0.71402 9.54335 1.83602L2.45984 7.61101C1.44327 8.43601 0.826843 10.086 1.04313 11.384L2.40576 19.678C2.71938 21.537 4.41726 23 6.26655 23H17.7299C19.5576 23 21.2879 21.504 21.6015 19.667L22.9642 11.373C23.1588 10.086 22.5424 8.43601 21.5475 7.61101ZM12.8093 17.6C12.8093 18.051 12.4416 18.425 11.9982 18.425C11.5549 18.425 11.1872 18.051 11.1872 17.6V14.3C11.1872 13.849 11.5549 13.475 11.9982 13.475C12.4416 13.475 12.8093 13.849 12.8093 14.3V17.6Z" fill="#F15846"/>
</svg>
