<svg width="24" height="24" viewBox="0 0 24 24" fill="none" xmlns="http://www.w3.org/2000/svg">
<path d="M10 4V8H14V4H10ZM16 4V8H20V4H16ZM16 10V14H20V10H16ZM16 16V20H20V16H16ZM14 20V16H10V20H14ZM8 20V16H4V20H8ZM8 14V10H4V14H8ZM8 8V4H4V8H8ZM10 14H14V10H10V14ZM4 2H20C20.5304 2 21.0391 2.21071 21.4142 2.58579C21.7893 2.96086 22 3.46957 22 4V20C22 20.5304 21.7893 21.0391 21.4142 21.4142C21.0391 21.7893 20.5304 22 20 22H4C2.92 22 2 21.1 2 20V4C2 3.46957 2.21071 2.96086 2.58579 2.58579C2.96086 2.21071 3.46957 2 4 2Z" fill="#F15846"/>
</svg>
