<svg width="24" height="24" viewBox="0 0 24 24" fill="none" xmlns="http://www.w3.org/2000/svg">
<path d="M10.1752 2.61108L10.176 2.61045C11.1755 1.79394 12.8107 1.79485 13.8335 2.62328C13.8338 2.62348 13.834 2.62368 13.8343 2.62388L20.9124 8.38346C21.2455 8.66097 21.5587 9.11904 21.7658 9.67044C21.9725 10.2207 22.0415 10.7783 21.9763 11.2179L20.6158 19.4987C20.6156 19.4997 20.6155 19.5006 20.6153 19.5016C20.3792 20.8752 19.051 22 17.7299 22H6.26655C4.92145 22 3.62806 20.9058 3.39216 19.5136C3.39205 19.5129 3.39194 19.5123 3.39183 19.5117L2.02991 11.2219L2.02953 11.2196C1.95589 10.7777 2.01974 10.2201 2.22552 9.67119C2.43145 9.12191 2.74815 8.6649 3.08999 8.38749L3.09172 8.38608L10.1752 2.61108Z" stroke="#8B8987" stroke-width="2"/>
<path d="M11.9981 19.225C12.8961 19.225 13.6092 18.4799 13.6092 17.6V14.3C13.6092 13.42 12.8961 12.675 11.9981 12.675C11.1001 12.675 10.387 13.42 10.387 14.3V17.6C10.387 18.4799 11.1001 19.225 11.9981 19.225Z" stroke="#8B8987" stroke-width="1.6"/>
</svg>
