<svg width="18" height="18" viewBox="0 0 18 18" fill="none" xmlns="http://www.w3.org/2000/svg">
<path d="M12.78 12.78C11.6922 13.6092 10.3676 14.0685 9 14.0909C4.54545 14.0909 2 8.99998 2 8.99998C2.79157 7.52483 3.88945 6.23601 5.22 5.21998M7.66364 4.0618C8.10167 3.95927 8.55013 3.90802 9 3.90907C13.4545 3.90907 16 8.99998 16 8.99998C15.6137 9.72264 15.153 10.403 14.6255 11.03M10.3491 10.3491C10.1743 10.5366 9.96355 10.6871 9.72937 10.7914C9.49519 10.8958 9.24239 10.9519 8.98606 10.9564C8.72972 10.9609 8.4751 10.9138 8.23739 10.8177C7.99967 10.7217 7.78373 10.5788 7.60245 10.3975C7.42116 10.2163 7.27825 10.0003 7.18223 9.76259C7.08622 9.52488 7.03906 9.27026 7.04358 9.01392C7.04811 8.75759 7.10421 8.50479 7.20856 8.27061C7.3129 8.03643 7.46334 7.82567 7.65091 7.65089" stroke="#8B8987" stroke-width="1.69697" stroke-linecap="round" stroke-linejoin="round"/>
<path d="M2 2L16 16" stroke="#8B8987" stroke-width="1.69697" stroke-linecap="round" stroke-linejoin="round"/>
</svg>
