<svg width="24" height="24" viewBox="0 0 24 24" fill="none" xmlns="http://www.w3.org/2000/svg">
<path d="M20 21V18.4286C20 17.5193 19.5786 16.6472 18.8284 16.0042C18.0783 15.3612 17.0609 15 16 15H8C6.93913 15 5.92172 15.3612 5.17157 16.0042C4.42143 16.6472 4 17.5193 4 18.4286V21" stroke="#8B8987" stroke-width="2" stroke-linecap="round" stroke-linejoin="round"/>
<path d="M4 21H20" stroke="#8B8987" stroke-width="2" stroke-linecap="round"/>
<path d="M12 11C14.2091 11 16 9.20914 16 7C16 4.79086 14.2091 3 12 3C9.79086 3 8 4.79086 8 7C8 9.20914 9.79086 11 12 11Z" stroke="#8B8987" stroke-width="2" stroke-linecap="round" stroke-linejoin="round"/>
</svg>
