<svg width="24" height="24" viewBox="0 0 24 24" fill="none" xmlns="http://www.w3.org/2000/svg">
<path d="M5.5 6H17.5C18.325 6 19 6.675 19 7.5V16.5C19 17.325 18.325 18 17.5 18H5.5C4.675 18 4 17.325 4 16.5V7.5C4 6.675 4.675 6 5.5 6Z" stroke="#F15846" stroke-width="1.4" stroke-linecap="round" stroke-linejoin="round"/>
<path opacity="0.16" d="M6.5 8.99998L11.5 12.5L16.5 9.5C17 9 19 6.67498 19 7.49998V16.5C19 17.325 18.325 18 17.5 18H5.5C4.675 18 4 17.325 4 16.5V7.49998C4 6.67498 5.675 8.99998 6.5 8.99998Z" fill="#F15846"/>
<path d="M19 7.5L11.5 12.75L4 7.5" stroke="#F15846" stroke-width="1.4" stroke-linecap="round" stroke-linejoin="round"/>
</svg>
